<svg xmlns="http://www.w3.org/2000/svg" viewBox="476.9 321.8 816.2 90.9">
  <path d="M1064.9 412.7q7.1 0 14.4-5.6 7.2-5.5 7.2-17.1v-59.3q0-5.7 3.5-7.5h-18.7q3.5 1.2 3.5 7.5V390q0 6.5-2.3 12.5-2.7 6.8-7.6 10.2zm33.9-28.1l6.5-37q6.2 0 8.8 14l4.3 24.4q.3 1.7.3 3.9 0 5.2-3 7.6h21.1q-4.7-2.1-6.4-11.3l-10.8-63h-18.7q4 2.8 4 8.8 0 1.8-.1 2.2l-9.2 52.1q-.2.8-.4 1.45-.2.65-.4 1.15-2.4 6.4-6.6 8.6h16q-3.2-1.7-4.4-3.85-1.2-2.15-1.2-5.95 0-1 .05-1.8t.15-1.3zM1111 344h-5l.9-5.2q.5-3 .95-5.25.45-2.25.65-3.75 1 5.3 1.65 8.8.65 3.5.85 5.4zm55.4 8.4v-30.6q-3.6 2.6-4.2 2.4-6.3-1.6-8-1.6-7.9 0-13.7 8.5-5.9 8.6-5.9 24.9 0 12.5 5.7 27.5t15.4 15q5.4 0 8.3-5.7 4-8.1 4-19.3 0-3.2-1.5-3.2-2.3 0-2.3 2.1 0 10.8-2.2 17.8-1.6 5.2-5.4 5.2-3.3 0-5.1-5.6-.8-2.6-1.35-4.75t-.95-3.85q-.9-10.6-.9-16.6-.3-6.4-.3-9.5 0-7.4.3-13t1-9.5q1.1-6.8 6-6.8 2.8 0 3.9 2.3 1.3 3 1.6 6.5v3.5q0 1.7.1 3.4.1 2.9 1.5 6.1 1.7 3.6 4 4.8zM1189 390v-42.4q0-.4.2-.4 1.2 0 2.6 2.7 1.1 2.4 1.4 3.9 1.2 6.1 2.1 10.6.9 4.5 1.5 7.6l2.5 13.5q1 4 1.8 7t1.4 5h16.1q-1.4-1.4-2.45-2.65-1.05-1.25-1.75-2.35-1.3-2.2-2.7-7.6-.4-1.5-.9-3.55t-1-4.65l-3.6-17.6q-1.8-9.2-3.7-11.6-2.1-3-5.9-3.6-.7-.1-1.2-.1h-.8q-.3-.1-.6-.6.1-.3.4-.6 4-4.8 6.35-7.5 2.35-2.7 3.05-3.5 4.9-4.9 11.6-8.4h-16q1.6 1 1.6 3.4 0 2.6-2.9 6.1l-7.2 8.8q-.2.3-1.1.8-.8 0-.8-1.6v-10q0-5.7 3.5-7.5h-18.7q3.5 1.2 3.5 7.5V390q0 6-3.5 7.5h18.7q-3.5-2-3.5-7.5zm35.5 7.5h31.6v-22.7h-.5q-.9 6.2-3.6 12.1-3.8 7.7-8.5 7.7-3.8 0-3.8-4.4v-39.4q0-3.2 3.2-3.2 3.3 0 5.9 6.3 2.1 5.3 2.1 9.2h.6v-18.9h-11.8v-13.8q0-3.4 3.2-3.4 6.7 0 10 5.6 2.7 4.7 2.7 11.8h.5v-21.2h-31.6q3.5 1.2 3.5 7.5V390q0 3.5-1.2 5.1-1.7 2.2-2.3 2.4zm68.6-74.3H1260v20.7h.6q1.5-7.7 4-12.7 2.5-4.8 4.6-4.8 1.5 0 1.5 1.2V390q0 6-3.5 7.5h18.7q-3.5-2-3.5-7.5v-62.4q0-1.2 1.5-1.2 2.1 0 4.5 4.2 3 5.3 4.2 13.3h.5v-20.7zm-397.8 23.6V390q0 6-3.5 7.5h18.7q-3.5-2-3.5-7.5v-59.3q0-5.7 3.5-7.5h-18.7q3.5 1.2 3.5 7.5V344H885v-13.3q0-5.7 3.5-7.5h-18.7q3.5 1.2 3.5 7.5V390q0 6-3.5 7.5h18.7q-3.5-2-3.5-7.5v-32.5q-.2-2.4.55-4.35.75-1.95 2.15-3.35 1.4-1.4 3.35-2.2 1.95-.8 4.25-.8zm36.2 43.2v-59.3q0-5.7 3.5-7.5h-18.7q3.5 1.2 3.5 7.5V390q0 6-3.5 7.5H935q-3.5-2-3.5-7.5zm43.7 8.7v-46.5q0-5.7 3.5-7.5H960q3.5 1.4 3.5 7.5V391q0 4-2.3 4-3.6 0-4.9-7.9-2.1-12.1-2.1-32 0-12.4 1.9-23.1 1.1-6.2 5.4-6.2 4.3 0 6 5.6.2 1.4.4 2.35.2.95.3 1.65.9 4.4 5.2 6.8v-20.4q-.9.8-1.8 1.65-.9.85-2.4.85-.8 0-2.6-.7-2-.8-2.5-.9-.5-.1-1.4-.1h-2.3q-4.1 0-8.8 3.8-10.8 8.9-10.8 29.6 0 10 2.8 19.3 3.2 10.8 8.9 17.1 4.9 5.7 9.4 5.7 1.5 0 4.3-1.1 3-1.1 4.4-1.1 2.5 0 4.6 2.8zm31.7-51.9V390q0 6-3.5 7.5h18.7q-3.5-2-3.5-7.5v-59.3q0-5.7 3.5-7.5h-18.7q3.5 1.2 3.5 7.5V344h-10.3v-13.3q0-5.7 3.5-7.5h-18.7q3.5 1.2 3.5 7.5V390q0 6-3.5 7.5h18.7q-3.5-2-3.5-7.5v-32.5q-.2-2.4.55-4.35.75-1.95 2.15-3.35 1.4-1.4 3.35-2.2 1.95-.8 4.25-.8zm-476-15.3q0-8.3-13.6-8.3h-23.6q-.4 0-1.15-.1-.75-.1-1.05-.1h-2.2q-5.2 0-8.6 2.8-3.8 3-3.8 8 0 4.1 2.8 7.3 2.9 3.2 6.7 3.2 4.4 0 5.6-2-5.6-1.1-5.6-7.6 0-3.3 1.8-5.7 1.8-2.4 5-2.4 4.8 0 4.8 4.1V390q0 4.5-3.5 7.5h15.6q6.1 0 10.3-4.4 2-2 3.45-3.95 1.45-1.95 2.55-3.65 6.7-10.7 6.7-22 0-16.8-16-19.2 13.8-5.2 13.8-12.8zm-21.2 60.3V349q0-2 1.9-2 9.2 0 9.2 20 0 9.9-1.3 15.2-2.9 12.2-7.4 12.2-2.4 0-2.4-2.6zm0-51.2v-11q0-3.3 4.8-3.3 2.6 0 4.25 1.65t1.65 4.25q0 4.6-3.3 7.7-3.4 3.2-5.6 3.2-1.8 0-1.8-2.5zm29.2 56.9h31.6v-22.7h-.5q-.9 6.2-3.6 12.1-3.8 7.7-8.5 7.7-3.8 0-3.8-4.4v-39.4q0-3.2 3.2-3.2 3.3 0 5.9 6.3 2.1 5.3 2.1 9.2h.6v-18.9h-11.8v-13.8q0-3.4 3.2-3.4 6.7 0 10 5.6 2.7 4.7 2.7 11.8h.5v-21.2h-31.6q3.5 1.2 3.5 7.5V390q0 3.5-1.2 5.1-1.7 2.2-2.3 2.4zm52.7-55.9v-10.9q0-4.3 3.9-4.3 5.2 0 5.2 6.4 0 4.1-2.6 7.2-2.6 3-5.1 3-1.4 0-1.4-1.4zm11.9-18.4h-27.1q3.5 1.2 3.5 7.5V390q0 6-3.5 7.5h18.7q-3.5-2-3.5-7.5v-41.7q4.3.5 5.3 5.4.7 2.9 1.65 8.35.95 5.45 2.35 13.55 2.4 14 4.5 21.9h15.8q-4.3-2.8-5.7-7.4-2-8.7-3.45-15.1-1.45-6.4-2.25-10.9-1.1-5.7-1.65-10.45-.55-4.75-.55-8.55-4.9 1.1-8.2 1.1-.9 0-1.95-.1-1.05-.1-2.25-.3 7.4-1.4 12-4.4 6.3-4 6.3-10.2 0-4-3.1-6.1-2.6-1.9-6.9-1.9zm38.8 66.8v-42.4q0-.4.2-.4 1.2 0 2.6 2.7 1.1 2.4 1.4 3.9 1.2 6.1 2.1 10.6.9 4.5 1.5 7.6l2.5 13.5q1 4 1.8 7t1.4 5h16.1q-1.4-1.4-2.45-2.65-1.05-1.25-1.75-2.35-1.3-2.2-2.7-7.6-.4-1.5-.9-3.55t-1-4.65l-3.6-17.6q-1.8-9.2-3.7-11.6-2.1-3-5.9-3.6-.7-.1-1.2-.1h-.8q-.3-.1-.6-.6.1-.3.4-.6 4-4.8 6.35-7.5 2.35-2.7 3.05-3.5 4.9-4.9 11.6-8.4h-16q1.6 1 1.6 3.4 0 2.6-2.9 6.1l-7.2 8.8q-.2.3-1.1.8-.8 0-.8-1.6v-10q0-5.7 3.5-7.5h-18.7q3.5 1.2 3.5 7.5V390q0 6-3.5 7.5h18.7q-3.5-2-3.5-7.5zm35.5 7.5h31.6v-22.7h-.5q-.9 6.2-3.6 12.1-3.8 7.7-8.5 7.7-3.8 0-3.8-4.4v-39.4q0-3.2 3.2-3.2 3.3 0 5.9 6.3 2.1 5.3 2.1 9.2h.6v-18.9H693v-13.8q0-3.4 3.2-3.4 6.7 0 10 5.6 2.7 4.7 2.7 11.8h.5v-21.2h-31.6q3.5 1.2 3.5 7.5V390q0 3.5-1.2 5.1-1.7 2.2-2.3 2.4zm67.7 0v-22.7h-.6q-.8 6.2-3.6 12-3.8 7.8-8.5 7.8-2.3 0-2.3-4.4v-59.5q0-5.7 3.5-7.5h-18.7q3.5 1.2 3.5 7.5V390q0 6-3.5 7.5h30.2zm5.8 0h31.6v-22.7h-.5q-.9 6.2-3.6 12.1-3.8 7.7-8.5 7.7-3.8 0-3.8-4.4v-39.4q0-3.2 3.2-3.2 3.3 0 5.9 6.3 2.1 5.3 2.1 9.2h.6v-18.9h-11.8v-13.8q0-3.4 3.2-3.4 6.7 0 10 5.6 2.7 4.7 2.7 11.8h.5v-21.2h-31.6q3.5 1.2 3.5 7.5V390q0 3.5-1.2 5.1-1.7 2.2-2.3 2.4zm57.9-74.3h-20.4q3.2 1.5 4.7 5l7.6 17.8v44q0 6-3.5 7.5h18.7q-3.5-2-3.5-7.5v-44l6.6-15q2.4-5.6 7.6-7.8h-12.3q2.1 1.4 2.1 4 0 2.9-.6 4.2l-4.3 9.7-4.1-9.7q-1-2.3-1-4.2 0-2.8 2.4-4z"/>
</svg>
