<svg xmlns="http://www.w3.org/2000/svg" style="isolation:isolate" viewBox="0 1.55 24 20.85">
  <path d="M17.3 3.05c2.85 0 5.2 2.6 5.2 5.75 0 3.4-2.95 5.5-5.75 8S12.5 20.65 12 20.95c-.55-.35-2.35-2-4.75-4.15-2.85-2.5-5.75-4.6-5.75-8 0-3.15 2.35-5.75 5.2-5.75 2.1 0 3.25 1 4.05 2.15.95 1.3 1.1 1.95 1.25 1.95.15 0 .3-.65 1.25-1.95.8-1.15 1.95-2.15 4.05-2.15zm0-1.5c-2.25 0-3.95.9-5.3 2.8C10.65 2.5 8.95 1.6 6.7 1.6 3 1.55 0 4.8 0 8.8c0 3.65 2.7 6 5.3 8.25.3.25.65.55.95.85l1.15 1c2.2 1.95 3.3 2.95 3.8 3.25.25.15.55.25.8.25.3 0 .55-.1.8-.25.5-.3 1.4-1.1 3.9-3.4l1-.9c.35-.3.65-.6 1-.85 2.65-2.2 5.3-4.5 5.3-8.2 0-4-3-7.25-6.7-7.25z"/>
</svg>