<svg xmlns="http://www.w3.org/2000/svg" style="isolation:isolate" viewBox="557 301 563.5 447.5">
  <path d="M557 748.5q35.5 0 72-28 36-27.5 36-85.5V338.5q0-28.5 17.5-37.5H589q17.5 6 17.5 37.5V635q0 32.5-11.5 62.5-13.5 34-38 51zM787.5 635V423q0-2 1-2 6 0 13 13.5 5.5 12 7 19.5 6 30.5 10.5 53t7.5 38l12.5 67.5q5 20 9 35t7 25h80.5q-7-7-12.25-13.25t-8.75-11.75q-6.5-11-13.5-38-2-7.5-4.5-17.75t-5-23.25l-18-88q-9-46-18.5-58-10.5-15-29.5-18-3.5-.5-6-.5h-4q-1.5-.5-3-3 .5-1.5 2-3 20-24 31.75-37.5T861.5 343q24.5-24.5 58-42h-80q8 5 8 17 0 13-14.5 30.5l-36 44q-1 1.5-5.5 4-4 0-4-8v-50q0-28.5 17.5-37.5h-93.5q17.5 6 17.5 37.5V635q0 30-17.5 37.5H805q-17.5-10-17.5-37.5zm333-334H955v103.5h3q7.5-38.5 20-63.5 12.5-24 23-24 7.5 0 7.5 6v312q0 30-17.5 37.5h93.5q-17.5-10-17.5-37.5V323q0-6 7.5-6 10.5 0 22.5 21 15 26.5 21 66.5h2.5V301z" fill-rule="evenodd"/>
</svg>
